<?xml version="1.0" standalone="no"?>
<!DOCTYPE svg PUBLIC "-//W3C//DTD SVG 20010904//EN"
 "http://www.w3.org/TR/2001/REC-SVG-20010904/DTD/svg10.dtd">
<svg version="1.0" xmlns="http://www.w3.org/2000/svg"
 width="1026.000000pt" height="1280.000000pt" viewBox="0 0 1026.000000 1280.000000"
 preserveAspectRatio="xMidYMid meet">
<g transform="translate(0.000000,1280.000000) scale(0.100000,-0.100000)"
fill="#000000" stroke="none">
<path d="M5021 12779 c-98 -28 -169 -68 -232 -132 -102 -102 -145 -222 -137
-379 15 -250 221 -440 478 -440 196 0 352 100 438 280 36 76 37 79 37 197 -1
101 -4 129 -24 177 -30 77 -89 154 -159 207 -64 50 -98 65 -194 92 -82 23
-123 23 -207 -2z"/>
<path d="M3375 12753 c-224 -26 -358 -59 -480 -117 -191 -90 -495 -286 -945
-609 -549 -395 -750 -530 -1050 -709 -237 -142 -353 -202 -568 -297 -214 -95
-318 -146 -327 -162 -11 -17 72 -95 126 -118 143 -62 443 -46 670 36 238 85
649 315 1082 605 365 245 513 373 642 557 50 71 61 82 84 79 l26 -3 1 -135 c5
-428 233 -742 609 -840 61 -16 115 -22 230 -23 144 -2 150 -3 153 -23 2 -12
-11 -38 -32 -63 -60 -71 -60 -151 -1 -268 98 -196 333 -379 570 -444 103 -29
273 -31 390 -5 91 21 221 71 228 89 4 14 -12 749 -17 754 -2 2 -41 -6 -87 -18
-108 -29 -287 -31 -369 -6 -193 60 -330 231 -330 413 l0 66 133 136 c175 182
227 280 227 433 0 94 -16 160 -60 255 -118 255 -270 365 -565 409 -90 13 -262
18 -340 8z"/>
<path d="M6535 12745 c-289 -47 -439 -158 -555 -409 -82 -177 -81 -330 3 -491
22 -40 75 -105 165 -197 l132 -136 0 -66 c0 -182 -137 -353 -330 -413 -82 -25
-261 -23 -369 6 -46 12 -85 20 -87 18 -5 -5 -21 -740 -17 -754 7 -18 137 -68
228 -89 117 -26 287 -24 390 5 237 65 472 248 570 444 59 117 59 197 -1 268
-21 25 -34 51 -32 63 3 20 9 21 153 23 115 1 169 7 230 23 376 98 604 412 609
840 l1 135 26 3 c23 3 34 -8 84 -79 129 -184 277 -312 642 -557 433 -290 844
-520 1082 -605 227 -82 527 -98 670 -36 54 23 137 101 126 118 -9 16 -113 67
-327 162 -215 95 -331 155 -568 297 -300 179 -501 314 -1050 709 -602 432
-914 620 -1115 673 -204 53 -490 73 -660 45z"/>
<path d="M4817 11722 c-3 -4 -1 -165 3 -357 5 -193 14 -543 20 -780 16 -660
29 -1202 40 -1620 14 -535 13 -615 -4 -615 -25 0 -297 91 -396 132 -366 152
-568 354 -626 628 -19 88 -19 270 0 295 13 19 16 18 63 -26 96 -89 175 -119
314 -119 65 0 103 6 146 21 161 60 308 187 320 277 4 31 0 44 -21 69 -76 90
-288 137 -518 114 -204 -20 -347 -87 -488 -230 -217 -220 -271 -513 -148 -805
106 -252 382 -510 765 -717 35 -19 63 -39 63 -45 0 -6 -39 -40 -87 -76 -497
-371 -634 -883 -376 -1407 61 -124 138 -226 258 -340 91 -86 289 -243 364
-287 17 -10 31 -24 31 -30 0 -7 -46 -45 -102 -85 -217 -154 -390 -354 -457
-527 -82 -213 -79 -431 9 -693 86 -259 199 -431 424 -646 69 -66 126 -123 126
-127 0 -4 -28 -39 -63 -79 -170 -195 -237 -361 -237 -587 0 -306 132 -518 493
-790 37 -28 67 -54 67 -58 0 -4 -48 -55 -107 -112 -181 -178 -242 -300 -251
-500 -5 -126 11 -208 62 -323 39 -88 157 -250 171 -235 4 4 -2 62 -14 129 -45
246 -39 340 26 471 26 50 58 93 114 149 85 84 227 185 241 171 8 -8 17 -295
38 -1187 5 -242 13 -515 16 -608 l6 -167 28 0 28 0 6 162 c4 90 11 359 16 598
21 893 30 1194 39 1203 13 13 159 -91 241 -173 114 -115 170 -238 170 -376 0
-34 -12 -130 -26 -214 -14 -84 -22 -155 -19 -159 17 -16 152 178 185 267 38
101 50 164 50 262 0 219 -68 357 -272 549 -49 46 -88 87 -88 92 0 4 35 35 78
67 357 273 484 478 484 782 0 222 -69 392 -239 587 -35 40 -63 75 -63 79 0 4
57 61 126 127 218 209 345 398 423 632 120 363 83 669 -113 924 -66 85 -230
238 -339 315 -53 37 -97 73 -97 80 0 6 14 20 31 30 144 85 426 331 514 449
185 245 272 590 219 867 -52 275 -214 515 -486 718 -48 36 -88 70 -88 76 0 6
28 26 63 45 545 295 831 649 829 1029 -1 120 -18 190 -79 312 -85 169 -251
313 -434 374 -107 36 -292 53 -415 37 -151 -18 -278 -75 -306 -136 -39 -86
118 -249 308 -321 50 -19 84 -24 152 -24 141 0 223 31 315 119 46 44 49 45 63
27 19 -26 19 -207 -1 -298 -58 -274 -257 -474 -625 -627 -106 -44 -323 -117
-378 -127 l-35 -7 7 314 c3 173 11 483 16 689 9 348 14 546 40 1620 5 217 11
476 12 575 l3 180 -312 3 c-171 1 -314 -1 -316 -6z m110 -4662 c14 -534 16
-810 5 -810 -14 0 -102 59 -175 118 -129 104 -236 262 -272 403 -22 84 -16
230 14 312 31 87 86 171 161 246 75 76 214 174 239 169 14 -3 17 -53 28 -438z
m530 388 c146 -97 256 -229 305 -364 26 -73 35 -217 18 -298 -28 -135 -144
-311 -278 -419 -72 -58 -160 -117 -174 -117 -4 0 -8 46 -8 103 -1 155 22 1120
26 1135 6 22 31 13 111 -40z m-486 -2294 c4 -76 10 -313 14 -526 6 -328 5
-388 -6 -388 -24 0 -122 71 -179 130 -109 114 -180 276 -180 413 0 124 38 224
125 331 54 66 194 188 209 183 7 -2 13 -58 17 -143z m421 82 c173 -147 248
-284 248 -453 0 -137 -72 -302 -180 -413 -56 -58 -155 -130 -177 -130 -10 0
-13 29 -13 114 0 173 20 919 25 934 7 21 19 14 97 -52z m-369 -2158 c11 -317
9 -418 -6 -418 -20 0 -113 124 -149 198 -28 57 -32 78 -32 142 0 91 24 146 96
226 82 89 84 87 91 -148z m304 150 c73 -79 98 -136 98 -228 -1 -92 -29 -160
-112 -267 -89 -117 -87 -122 -79 229 4 167 10 306 12 310 11 18 34 5 81 -44z"/>
<path d="M2436 11665 c-15 -8 -78 -59 -140 -113 -500 -439 -894 -711 -1289
-889 -144 -65 -165 -81 -152 -119 15 -42 70 -64 191 -76 236 -23 399 24 712
203 323 185 816 550 856 633 17 36 17 36 -22 124 -40 89 -66 162 -77 220 -8
37 -31 42 -79 17z"/>
<path d="M7745 11648 c-11 -58 -37 -131 -77 -220 -39 -88 -39 -88 -22 -124 40
-83 533 -448 856 -633 313 -179 476 -226 712 -203 121 12 176 34 191 76 13 37
-8 55 -135 111 -402 179 -790 445 -1313 903 -65 57 -129 107 -143 112 -46 18
-62 12 -69 -22z"/>
<path d="M2507 11062 c-289 -280 -479 -425 -842 -638 -86 -51 -100 -63 -103
-88 -2 -16 2 -32 9 -37 7 -4 51 -13 98 -20 250 -35 481 46 792 277 105 78 442
358 473 392 30 34 15 65 -51 103 -32 17 -88 61 -124 95 -36 35 -74 64 -83 64
-10 0 -86 -66 -169 -148z"/>
<path d="M7506 11151 c-32 -32 -87 -76 -122 -96 -73 -43 -89 -72 -58 -107 31
-34 368 -314 473 -392 311 -231 542 -312 792 -277 47 7 91 16 98 20 7 5 11 21
9 37 -3 25 -17 37 -103 88 -363 213 -553 358 -842 638 -86 85 -159 148 -170
148 -10 0 -45 -27 -77 -59z"/>
<path d="M3048 10937 c-13 -5 -46 -38 -75 -75 -90 -116 -275 -303 -452 -457
-93 -81 -172 -154 -175 -161 -24 -64 115 -101 255 -70 146 32 375 177 556 350
159 152 239 267 231 334 -3 25 -8 28 -63 35 -33 4 -104 18 -157 30 -64 15
-105 20 -120 14z"/>
<path d="M7090 10923 c-52 -12 -122 -26 -155 -30 -55 -7 -60 -10 -63 -35 -8
-67 72 -182 231 -334 181 -173 410 -318 556 -350 140 -31 279 6 255 70 -3 7
-82 80 -175 161 -177 154 -362 341 -452 457 -29 36 -63 70 -77 75 -17 6 -56 1
-120 -14z"/>
</g>
</svg>
